<?xml version="1.0" encoding="utf-8"?>
<!-- Generator: Adobe Illustrator 26.1.0, SVG Export Plug-In . SVG Version: 6.00 Build 0)  -->
<svg version="1.1" id="Capa_1" xmlns="http://www.w3.org/2000/svg" xmlns:xlink="http://www.w3.org/1999/xlink" x="0px" y="0px"
	 viewBox="0 0 1800 1080" style="enable-background:new 0 0 1800 1080;" xml:space="preserve">
<style type="text/css">
	.st0{fill:none;}
	.st1{fill:#D9D9D9;}
	.st2{fill:#FFFFFF;}
	.st3{clip-path:url(#SVGID_00000075152743380780248500000004965728941122597264_);}
	.st4{clip-path:url(#SVGID_00000034770873410153975920000013618402677187115906_);}
	.st5{opacity:0.35;fill:url(#SVGID_00000134245279261458120040000016867522603544094130_);}
	.st6{display:none;}
	.st7{display:inline;}
	.st8{font-family:'Metropolis-Medium';}
	.st9{font-size:60.1438px;}
	.st10{letter-spacing:18;}
	.st11{fill:#5EC0C4;}
	.st12{font-size:40.982px;}
	.st13{letter-spacing:3.2;}
	.st14{fill:none;stroke:#FFFFFF;stroke-width:0.2828;stroke-miterlimit:10;}
	.st15{fill:#31B7BE;}
	.st16{font-family:'Metropolis-Bold';}
	.st17{font-size:29.9868px;}
	.st18{letter-spacing:2.1;}
	.st19{display:none;opacity:0.9;}
	.st20{display:inline;fill:#FFFFFF;}
	.st21{font-family:'Metropolis-Regular';}
	.st22{font-size:28.9873px;}
	.st23{font-size:33.9851px;}
	.st24{letter-spacing:9.5;}
	.st25{font-family:'Metropolis-SemiBold';}
	.st26{font-size:24.3114px;}
	.st27{letter-spacing:4.2;}
	.st28{fill:#424165;}
	.st29{font-size:19.9912px;}
	.st30{letter-spacing:5.3;}
	.st31{fill:#6A6583;}
	.st32{font-size:14.9934px;}
	.st33{fill:#FBFCFD;stroke:#424165;stroke-width:0.5656;stroke-linecap:round;stroke-linejoin:round;stroke-miterlimit:10;}
	.st34{fill:none;stroke:#424165;stroke-width:0.5656;stroke-linecap:round;stroke-linejoin:round;stroke-miterlimit:10;}
	.st35{fill:#FBFCFD;stroke:#424165;stroke-width:0.5656;stroke-miterlimit:10;}
	.st36{fill:#FBFCFD;stroke:#495279;stroke-width:0.5656;stroke-miterlimit:10;}
	.st37{fill:none;stroke:#424165;stroke-width:0.5656;stroke-miterlimit:10;}
	.st38{font-size:143.0066px;}
	.st39{letter-spacing:42.4;}
	.st40{clip-path:url(#SVGID_00000000216196755022950190000008060666897910664098_);}
</style>
<pattern  width="15" height="15" patternUnits="userSpaceOnUse" id="Unnamed_Pattern_2" viewBox="0 -15 15 15" style="overflow:visible;">
	<g>
		<rect y="-15" class="st0" width="15" height="15"/>
		<rect y="-15" class="st1" width="7.5" height="7.5"/>
		<rect x="7.5" y="-15" class="st2" width="7.5" height="7.5"/>
		<rect y="-7.5" class="st2" width="7.5" height="7.5"/>
		<rect x="7.5" y="-7.5" class="st1" width="7.5" height="7.5"/>
	</g>
</pattern>
<g>
	
		<image style="overflow:visible;opacity:0.75;" width="7666" height="5124" xlink:href="CD20160D.png"  transform="matrix(0.24 0 0 0.24 -13.08 -13.08)">
	</image>
	<g>
		<g>
			<g>
				<g>
					<g>
						<g>
							<defs>
								<rect id="SVGID_1_" width="1809.5" height="1199.5"/>
							</defs>
							<clipPath id="SVGID_00000085969673974381667620000006851174473147973291_">
								<use xlink:href="#SVGID_1_"  style="overflow:visible;"/>
							</clipPath>
							<g style="clip-path:url(#SVGID_00000085969673974381667620000006851174473147973291_);">
								<g>
									<defs>
										<rect id="SVGID_00000120525635813411788690000004342420506845515439_" width="1809.5" height="1110.6"/>
									</defs>
									<clipPath id="SVGID_00000160185841529935206280000011712652679032404151_">
										<use xlink:href="#SVGID_00000120525635813411788690000004342420506845515439_"  style="overflow:visible;"/>
									</clipPath>
								</g>
							</g>
						</g>
					</g>
				</g>
			</g>
		</g>
		<g>
			<rect class="st2" width="1809.5" height="1199.5"/>
			<rect class="st2" width="1809.5" height="1199.5"/>
			<g>
				<g>
					<g>
						<g>
							<defs>
								<rect id="SVGID_00000134230383781271786980000002655639867329760158_" width="1809.5" height="1199.5"/>
							</defs>
							
								<pattern  id="SVGID_00000021101190752986027060000015990309443716077957_" xlink:href="#Unnamed_Pattern_2" patternTransform="matrix(1 0 0 1 5 5)">
							</pattern>
							
								<use xlink:href="#SVGID_00000134230383781271786980000002655639867329760158_"  style="overflow:visible;fill:url(#SVGID_00000021101190752986027060000015990309443716077957_);"/>
							<clipPath id="SVGID_00000067932021391624720350000008885027213209129138_">
								<use xlink:href="#SVGID_00000134230383781271786980000002655639867329760158_"  style="overflow:visible;"/>
							</clipPath>
							<g style="clip-path:url(#SVGID_00000067932021391624720350000008885027213209129138_);">
								<g>
									<defs>
										<rect id="SVGID_00000163769496087499258020000006468078669692030378_" width="1809.5" height="1110.6"/>
									</defs>
									<clipPath id="SVGID_00000019669109075333271370000017575956031501977490_">
										<use xlink:href="#SVGID_00000163769496087499258020000006468078669692030378_"  style="overflow:visible;"/>
									</clipPath>
									<g style="clip-path:url(#SVGID_00000019669109075333271370000017575956031501977490_);">
										
											<image style="overflow:visible;" width="1240" height="694" xlink:href="CD20160F.jpg"  transform="matrix(1.4593 0 0 1.6003 0 0)">
										</image>
									</g>
								</g>
							</g>
						</g>
						
							<linearGradient id="SVGID_00000112620941043424968760000000736671608539839655_" gradientUnits="userSpaceOnUse" x1="-15.1766" y1="512.0684" x2="1826.328" y2="512.0684">
							<stop  offset="0" style="stop-color:#5EC0C4"/>
							<stop  offset="1" style="stop-color:#4B529F"/>
						</linearGradient>
						<polygon style="opacity:0.35;fill:url(#SVGID_00000112620941043424968760000000736671608539839655_);" points="1826.3,1031.2 
							-15.2,1050.2 -15.2,-26 1826.3,-26 						"/>
					</g>
				</g>
				<g class="st6">
					
						<image style="display:inline;overflow:visible;opacity:0.75;" width="4136" height="309" xlink:href="CD20160A.png"  transform="matrix(0.24 0 0 0.24 447.678 391.518)">
					</image>
					<g class="st7">
						<text transform="matrix(0.9429 0 0 1 451.375 445.5981)" class="st2 st8 st9 st10">dISEÑO Y CONSTRUCCIÓN</text>
					</g>
				</g>
				<g class="st6">
					
						<image style="display:inline;overflow:visible;opacity:0.75;" width="2619" height="223" xlink:href="CD20160B.png"  transform="matrix(0.24 0 0 0.24 590.958 485.118)">
					</image>
					<g class="st7">
						<text transform="matrix(0.9429 0 0 1 594.7227 523.1968)" class="st11 st8 st12 st13">HAZ REALIDAD TUS PROYECTOS</text>
					</g>
				</g>
				<g class="st6">
					
						<image style="display:inline;overflow:visible;opacity:0.75;" width="1289" height="414" xlink:href="CD201615.png"  transform="matrix(0.24 0 0 0.24 781.518 689.838)">
					</image>
					<g class="st7">
						<g>
							<path class="st14" d="M839,784c-29.5,0-53.5-20.2-53.5-45.1c0-24.9,24-45.1,53.5-45.1h193.1c29.5,0,53.5,20.2,53.5,45.1
								c0,24.9-24,45.1-53.5,45.1H839z"/>
							<path class="st15" d="M1033.4,775.2H837.5c-24.1,0-43.7-16.3-43.7-36.3l0,0c0-20,19.6-36.3,43.7-36.3h195.9
								c24.1,0,43.7,16.3,43.7,36.3l0,0C1077.1,759,1057.6,775.2,1033.4,775.2z"/>
							<g>
								<text transform="matrix(0.9429 0 0 1 832.0649 749.6953)" class="st2 st16 st17 st18">cONTACTANOS</text>
							</g>
						</g>
					</g>
				</g>
				<rect x="479.4" y="567.3" class="st0" width="850.6" height="84"/>
				<text transform="matrix(0.9429 0 0 1 489.1411 587.8418)" class="st19"><tspan x="0" y="0" class="st20 st21 st22">Nuestra meta es contribuir al desarrollo y construir futuro mediante la ex</tspan><tspan x="872.7" y="0" class="st20 st21 st22">-</tspan><tspan x="222.3" y="34.8" class="st20 st21 st22">celencia en el diseño Arquitectonico</tspan></text>
				<g class="st6">
					<text transform="matrix(0.9429 0 0 1 165.4497 134.5854)" class="st7"><tspan x="0" y="0" class="st2 st8 st23 st24">Barrios-duran</tspan><tspan x="-74.2" y="40.8" class="st2 st8 st23 st24">    rquitectura s.a.s</tspan></text>
				</g>
				<g class="st6">
					<text transform="matrix(0.9429 0 0 1 917.5576 134.9927)" class="st20 st25 st26 st27">iNICIO</text>
					<text transform="matrix(0.9429 0 0 1 1033.625 134.5854)" class="st20 st25 st26 st27">QUIENES SOMOS</text>
					<text transform="matrix(0.9429 0 0 1 1320.3965 134.9927)" class="st20 st25 st26 st27">PROYECTOS</text>
					<text transform="matrix(0.9429 0 0 1 1530.6123 134.5854)" class="st20 st25 st26 st27">HERRAMIENTAS</text>
				</g>
				<g class="st6">
					<g class="st7">
						<rect x="217.5" y="1025.6" class="st0" width="277.7" height="24.8"/>
						<text transform="matrix(0.9429 0 0 1 217.4756 1039.8115)" class="st28 st25 st29 st30">Lorem ipsum</text>
						<rect x="217.5" y="1067.4" class="st0" width="195" height="49.3"/>
						<text transform="matrix(0.9429 0 0 1 217.4756 1078.0049)"><tspan x="0" y="0" class="st31 st21 st32">Lorem ipsum dolor sit amet, </tspan><tspan x="0" y="18" class="st31 st21 st32">consectetuer adipiscing elit, sed </tspan><tspan x="0" y="36" class="st31 st21 st32">diam nonummy nibh</tspan></text>
					</g>
					<g class="st7">
						<rect x="178" y="1083.1" class="st33" width="10" height="30.5"/>
						<rect x="158.5" y="1074.8" class="st33" width="10" height="38.8"/>
						<rect x="138.9" y="1066" class="st33" width="10" height="47.6"/>
						<rect x="119.4" y="1052.5" class="st33" width="10" height="61.1"/>
						<path class="st34" d="M119.9,1022.6c16.2,20.4,31.5,38.6,68.2,38.6"/>
						<polyline class="st34" points="131.6,1022.6 119.9,1022.6 119.9,1035 						"/>
					</g>
				</g>
				<g class="st6">
					<g class="st7">
						<rect x="1042.7" y="1025.6" class="st0" width="277.7" height="24.8"/>
						<text transform="matrix(0.9429 0 0 1 1042.7256 1039.8115)" class="st28 st25 st29 st30">Lorem ipsum</text>
						<rect x="1042.7" y="1067.4" class="st0" width="195" height="49.3"/>
						<text transform="matrix(0.9429 0 0 1 1042.7256 1078.0049)"><tspan x="0" y="0" class="st31 st21 st32">Lorem ipsum dolor sit amet, </tspan><tspan x="0" y="18" class="st31 st21 st32">consectetuer adipiscing elit, sed </tspan><tspan x="0" y="36" class="st31 st21 st32">diam nonummy nibh</tspan></text>
					</g>
					<g class="st7">
						<path class="st35" d="M1012.6,1075.3c2.9-4.9,4.6-10.7,4.6-16.9c0-17.5-13.4-31.8-29.9-31.8c-16.5,0-29.9,14.2-29.9,31.8
							s13.4,31.8,29.9,31.8c4.8,0,9.3-1.2,13.4-3.4c5.9,4.9,14.4,4.5,19.8-1.3c0.3-0.3,0.6-0.6,0.8-1L1012.6,1075.3z"/>
						<path class="st35" d="M951.6,1047.3c-16.5,0-29.9,14.2-29.9,31.8c0,6.2,1.7,12,4.6,16.9l-8.7,9.2c0.3,0.3,0.5,0.7,0.8,1
							c5.4,5.7,13.9,6.2,19.8,1.3c4,2.1,8.6,3.4,13.4,3.4c16.5,0,29.9-14.2,29.9-31.8C981.5,1061.5,968.1,1047.3,951.6,1047.3z"/>
						<g>
							<ellipse class="st28" cx="938.3" cy="1080.3" rx="3.5" ry="3.7"/>
							<ellipse class="st28" cx="951.6" cy="1080.3" rx="3.5" ry="3.7"/>
							<ellipse class="st28" cx="964.8" cy="1080.3" rx="3.5" ry="3.7"/>
						</g>
						<g>
							<path class="st28" d="M978.6,1058.4c0,1.6-1.2,2.9-2.8,2.9s-2.8-1.3-2.8-2.9c0-1.6,1.2-2.9,2.8-2.9
								S978.6,1056.8,978.6,1058.4z"/>
							<path class="st28" d="M989.1,1058.4c0,1.6-1.2,2.9-2.8,2.9s-2.8-1.3-2.8-2.9c0-1.6,1.2-2.9,2.8-2.9
								S989.1,1056.8,989.1,1058.4z"/>
							<path class="st28" d="M999.6,1058.4c0,1.6-1.2,2.9-2.8,2.9c-1.5,0-2.8-1.3-2.8-2.9c0-1.6,1.2-2.9,2.8-2.9
								C998.4,1055.5,999.6,1056.8,999.6,1058.4z"/>
						</g>
					</g>
				</g>
				<g class="st6">
					<g class="st7">
						<rect x="1478.4" y="1025.6" class="st0" width="220.2" height="24.8"/>
						<text transform="matrix(0.9429 0 0 1 1478.4414 1039.8115)" class="st28 st25 st29 st30">Lorem ipsum</text>
						<rect x="1478.4" y="1067.4" class="st0" width="195" height="49.3"/>
						<text transform="matrix(0.9429 0 0 1 1478.4414 1078.0049)"><tspan x="0" y="0" class="st31 st21 st32">Lorem ipsum dolor sit amet, </tspan><tspan x="0" y="18" class="st31 st21 st32">consectetuer adipiscing elit, sed </tspan><tspan x="0" y="36" class="st31 st21 st32">diam nonummy nibh</tspan></text>
					</g>
					<g class="st7">
						<path class="st36" d="M1417.2,1090.8c-1.9,0-3.7-0.8-5-2.2l-22.5-23.8c-2.8-2.9-2.8-7.6,0-10.6c2.8-2.9,7.2-2.9,10,0
							l16.8,17.8l26-35.6c2.4-3.3,6.8-3.9,9.9-1.3c3.1,2.5,3.6,7.2,1.3,10.5l-30.9,42.3c-1.2,1.7-3.1,2.7-5.1,2.9
							C1417.5,1090.8,1417.3,1090.8,1417.2,1090.8z"/>
					</g>
				</g>
				<g class="st6">
					<g class="st7">
						<rect x="630.1" y="1025.6" class="st0" width="277.7" height="24.8"/>
						<text transform="matrix(0.9429 0 0 1 630.1006 1039.8115)" class="st28 st25 st29 st30">Lorem ipsum</text>
						<rect x="630.1" y="1067.4" class="st0" width="195" height="49.3"/>
						<text transform="matrix(0.9429 0 0 1 630.1006 1078.0049)"><tspan x="0" y="0" class="st31 st21 st32">Lorem ipsum dolor sit amet, </tspan><tspan x="0" y="18" class="st31 st21 st32">consectetuer adipiscing elit, sed </tspan><tspan x="0" y="36" class="st31 st21 st32">diam nonummy nibh</tspan></text>
					</g>
					<g class="st7">
						<path class="st35" d="M601.9,1095.3h-79c-0.9,0-1.7-0.7-1.7-1.7v-68.9c0-0.9,0.7-1.7,1.7-1.7h79c0.9,0,1.7,0.7,1.7,1.7v68.9
							C603.6,1094.6,602.8,1095.3,601.9,1095.3z"/>
						<line class="st37" x1="521.2" y1="1076.2" x2="603.6" y2="1076.2"/>
						<path class="st28" d="M565.6,1086.2c0,1.9-1.5,3.4-3.2,3.4s-3.2-1.5-3.2-3.4s1.5-3.4,3.2-3.4S565.6,1084.3,565.6,1086.2z"/>
						<rect x="552.5" y="1095.3" class="st35" width="19.7" height="11.4"/>
						<path class="st35" d="M583.5,1116.1h-42.3c-0.6,0-1-0.5-1-1v-7.4c0-0.6,0.5-1,1-1h42.3c0.6,0,1,0.5,1,1v7.4
							C584.5,1115.6,584.1,1116.1,583.5,1116.1z"/>
					</g>
				</g>
				<g class="st6">
					<text transform="matrix(0.9429 0 0 1 45.1143 175.7729)" class="st20 st8 st38 st39">A</text>
				</g>
			</g>
		</g>
		<g>
			<g>
				<g>
					<g>
						<g>
							<defs>
								<rect id="SVGID_00000140731461589352364060000011820976314035109515_" width="1809.5" height="1199.5"/>
							</defs>
							<clipPath id="SVGID_00000095322918585742507570000010498887663474587326_">
								<use xlink:href="#SVGID_00000140731461589352364060000011820976314035109515_"  style="overflow:visible;"/>
							</clipPath>
							<g style="clip-path:url(#SVGID_00000095322918585742507570000010498887663474587326_);">
								<g>
									<defs>
										<rect id="SVGID_00000020367516668640987570000003477228068388418998_" width="1809.5" height="1110.6"/>
									</defs>
									<clipPath id="SVGID_00000098900209254285206070000012192254468294149768_">
										<use xlink:href="#SVGID_00000020367516668640987570000003477228068388418998_"  style="overflow:visible;"/>
									</clipPath>
								</g>
							</g>
						</g>
					</g>
				</g>
			</g>
		</g>
	</g>
</g>
</svg>
