<?xml version="1.0" encoding="utf-8"?>
<!-- Generator: Adobe Illustrator 26.1.0, SVG Export Plug-In . SVG Version: 6.00 Build 0)  -->
<svg version="1.1" id="Capa_1" xmlns="http://www.w3.org/2000/svg" xmlns:xlink="http://www.w3.org/1999/xlink" x="0px" y="0px"
	 viewBox="0 0 1080 720" style="enable-background:new 0 0 1080 720;" xml:space="preserve">
<style type="text/css">
	.st0{fill:#2A4B9B;}
	.st1{opacity:0.67;}
	.st2{fill:#231F20;}
	.st3{fill:#FFFFFF;}
	.st4{fill:none;}
	.st5{fill:#020203;}
	.st6{font-family:'Onyx';}
	.st7{font-size:33px;}
	.st8{letter-spacing:23;}
	.st9{opacity:0.67;fill:#221E20;enable-background:new    ;}
</style>
<path class="st0" d="M254.5,203.7l-92.5-7.3l70.7,50.9H231c0,0,0,0,0,0h11.6c39.5,0,71.4,32.2,71.4,71.8v60.1
	c0,39.7-30.7,77.9-70.2,77.9l-46.7,7.6L161.9,502l91.5-4.2c57.6-13,89.4-49.8,99.6-106.7l1-85.4
	C347.4,246.7,302.5,215.8,254.5,203.7z"/>
<path class="st0" d="M284.4,257.5v60.3c0,16.3-8.9,31.5-23.8,41.5c-0.1,0.1-0.2,0.1-0.3,0.2c-8.3,5.7-18.4,9.1-29,9.1l0,0
	c-2.3,0-4.1,1.6-4.1,3.6v164.6l-30.8,23.8L194,374.2c0-3.1-2.9-5.6-6.4-5.6l0,0c-10.3,0-20.3-3.2-28.2-8.9c-0.1-0.1-0.2-0.2-0.3-0.2
	c-14.9-10.3-24-25.5-24-42l-0.6-89.9l35.3,25.3l2.7,63.8c0,13.2,12.3,23.9,27.5,23.9h17.3c16.6,0,30-11.7,30-26l-0.5-69l2.9,0.2l0,0
	c1.9,0.1,3.9,0.3,5.8,0.7l2.5,0.3l-0.8,0c1.5-0.1,2.9,0.4,4.3,0.7c0.6,0.1,1.3,0.4,1.9,0.5c1.4,0.3,2.6,0.7,4,1.2
	c1.6,0.5,3.2,0.7,4.8,1.3c1.3,0.5,2.6,1.1,3.7,1.8l0,0l7.5,4.3C283.9,256.5,284.4,257,284.4,257.5z"/>
<g>
	<path class="st0" d="M570.2,340h31.3l-20.8-91.2h12.1c1.1-0.7,1.7-1.4,1.7-2c0-0.5-0.6-1.1-1.7-1.8h-49.2c-0.5,0-0.9,0.1-1.2,0.4
		s-0.5,0.8-0.5,1.5c0,0.6,0.2,1,0.5,1.4c0.3,0.3,0.7,0.5,1.2,0.5h6L570.2,340L570.2,340z"/>
	<path class="st0" d="M638.9,245.3c-0.4-0.2-1.2-0.3-2.3-0.3h-24.7c-1.1,0.6-1.7,1.3-1.7,2c0,0.8,0.3,1.4,0.9,1.7l5,0.6
		c2.1,0.8,3.8,2.4,5,4.7s1.8,5.4,1.8,9.2c0,2.6-0.3,5.4-1.1,8.4l-15,68.3h3.5l0,0l16.7-74.4c1.9-8.6,5.4-14.4,10.4-17.3
		c1.2-0.8,1.8-1.6,1.8-2.3L638.9,245.3z"/>
	<path class="st0" d="M617.9,468.9h-12v-89.2h-31.3v89.2h-12.6c-0.5,0-0.9,0.2-1.2,0.5s-0.5,0.8-0.5,1.4s0.2,1,0.5,1.4
		s0.7,0.5,1.2,0.5h55.8c0.5,0,0.9-0.2,1.3-0.5c0.3-0.3,0.5-0.8,0.5-1.4s-0.2-1-0.5-1.4C618.8,469,618.4,468.9,617.9,468.9z"/>
</g>
<g>
	<path class="st0" d="M513.2,414.3c0.4,0.4,0.8,0.5,1.3,0.5c0.5,0,0.9-0.2,1.2-0.5c0.3-0.4,0.5-0.8,0.5-1.3v-33.3h-6.1
		c1.8,6.5,2.6,14,2.6,22.4V413C512.7,413.5,512.9,414,513.2,414.3z"/>
	<path class="st0" d="M534.7,377.4c-0.6,0-1.3,0.6-2,1.7v10c0,8.2-1.6,19.5-4.7,34.1c-1.9,9-4.6,17.3-8.2,24.9
		c-3.5,7.6-7.3,13-11.3,16c-4,3.1-8.1,4.6-12.3,4.6h-4.8v-89h-31v89.2h-9.7c-0.7,0-1.3,0.2-1.7,0.5c-0.4,0.3-0.6,0.8-0.6,1.4
		c0,0.5,0.2,0.9,0.6,1.3c0.4,0.4,1,0.6,1.7,0.6h86v-93.5c0-0.5-0.2-0.9-0.5-1.2C535.7,377.6,535.3,377.4,534.7,377.4z"/>
	<path class="st0" d="M515.7,299.3c-0.3-0.4-0.7-0.5-1.2-0.5c-0.5,0-0.9,0.2-1.3,0.5c-0.3,0.4-0.5,0.8-0.5,1.3v11.8
		c0,11.4-1.4,20.6-4.1,27.6h7.6v-39.5C516.2,300,516,299.6,515.7,299.3z"/>
	<path class="st0" d="M450.5,245c-1,0.6-1.5,1.3-1.5,2c0,0.5,0.5,1.1,1.5,1.8h9.8V340h31v-91.1h9.4c5.3,0,9,1,11.2,3
		c4.2,3.8,8.7,12.9,13.2,27.4c4.6,14.4,7.2,30,7.9,46.7c0.1,2.5,0.3,4,0.5,4.3c0.2,0.4,0.7,0.5,1.2,0.5c0.6,0,1.2-0.5,1.7-1.5V245
		L450.5,245L450.5,245L450.5,245z"/>
</g>
<g>
	<path class="st0" d="M699.5,248.8h6.4V340h31.3v-91.2h9.1c1.1-0.7,1.7-1.4,1.7-2c0-0.5-0.6-1.1-1.7-1.8h-46.8
		c-1.1,0.6-1.7,1.2-1.7,1.8C697.8,247.4,698.4,248.1,699.5,248.8z"/>
	<path class="st0" d="M645.5,248.8h10V340h31v-91.2h4.8c1.1-0.7,1.7-1.4,1.7-2c0-0.5-0.5-1.1-1.7-1.8h-45.9
		c-1.1,0.7-1.7,1.3-1.7,1.8C643.8,247.4,644.3,248.1,645.5,248.8z"/>
	<path class="st0" d="M747.6,469.4c-0.4-0.3-0.9-0.5-1.4-0.5h-9.1v-91.4h-31.3v91.4h-5c-0.5,0-1,0.2-1.3,0.5
		c-0.4,0.3-0.5,0.8-0.5,1.4s0.2,1,0.5,1.4c0.3,0.3,0.8,0.5,1.3,0.5h45.4c0.5,0,1-0.2,1.4-0.5c0.4-0.3,0.6-0.8,0.6-1.4
		S748,469.7,747.6,469.4z"/>
	<path class="st0" d="M692.4,468.9h-5.9v-91.4h-31v91.4h-10c-1.1,0.7-1.7,1.3-1.7,1.9s0.5,1.2,1.7,1.9h46.9c0.5,0,0.9-0.2,1.3-0.5
		c0.3-0.3,0.5-0.8,0.5-1.4s-0.2-1-0.5-1.4C693.3,469,692.9,468.9,692.4,468.9z"/>
</g>
<g>
	<path class="st0" d="M441.6,380.2l-1.2-0.5l-1.2,0.5c-0.3,0.4-0.5,1.3-0.6,2.7c-0.1,3.9-1.2,12.9-3.4,27
		c-2.2,14.1-5.6,27.1-10.4,39c-3.2,8.1-6.6,13.4-10,16c-3.4,2.6-7.5,3.9-12,3.9h-6.4v-88.9h-31v89.1h-9.5c-0.5,0-1,0.2-1.3,0.5
		c-0.4,0.3-0.5,0.8-0.5,1.4s0.2,1,0.5,1.4c0.4,0.3,0.8,0.5,1.3,0.5H441l1.2-91.1C442.2,381,442,380.6,441.6,380.2z"/>
	<path class="st0" d="M356,248.8h9.4V340h31v-91.2h10c0.5,0,0.9-0.2,1.3-0.5c0.4-0.4,0.5-0.8,0.5-1.4c0-0.5-0.2-0.9-0.5-1.3
		c-0.4-0.4-0.8-0.5-1.3-0.5H356c-1.1,0.7-1.7,1.4-1.7,2C354.4,247.5,354.9,248.1,356,248.8z"/>
</g>
<g>
	<path class="st0" d="M860.1,332c0.7,0,1.2-0.2,1.5-0.8l0.3-3.3l0.2-1.1c2.2-17.1,4.9-32.6,8.1-46.5c3.2-13.9,7-22.8,11.4-27
		c3-3,6.9-4.5,11.7-4.5h12.4L883.5,340h30.8l23-95h-79v85.7C858.9,331.6,859.5,332,860.1,332z"/>
	<path class="st0" d="M935.6,381.5l-1.5,0.5l-0.3,1.8c-0.2,11.1-2.3,25.1-6.4,42.2s-8.5,28.4-13.5,34.1s-10.5,8.6-16.4,8.6h-14.2
		l22-91.3h-30.9l-23.1,95.2h84.5l1.5-90.1C936.8,381.9,936.2,381.5,935.6,381.5z"/>
</g>
<g>
	<path class="st0" d="M810.4,457.8c0,4.2-1,7.5-2.9,9.8c-1.9,2.3-4.1,3.4-6.7,3.4c-2.6,0-4.8-1.3-6.7-3.8c-2.4-3.5-3.6-9.2-3.6-17.1
		v-72.7h-31.9v13.6c0,19.6,2.8,37.4,8.3,53.4c3.4,10,8.2,17.6,14.2,22.7s12.7,7.7,19.8,7.7c10.6,0,19.4-5.1,26.5-15.4
		c10.2-14.8,15.3-38.4,15.3-70.5v-11.5h-32.4V457.8z"/>
	<path class="st0" d="M840.1,295.9c-1.1-7.8-3-15.3-5.7-22.5c-2.7-7.2-5.7-13-9-17.4c-3.3-4.4-7.1-7.7-11.3-10
		c-4.2-2.3-8.9-3.4-13.9-3.4c-10.4,0-19.1,5.1-26.2,15.3c-10.2,14.7-15.3,37.3-15.3,67.8V340h31.9v-76.2c0-5.8,1.2-10.1,3.5-13.2
		c1.7-2.2,3.7-3.3,6-3.3c2.6,0,4.8,1.2,6.5,3.5c2.5,3.2,3.8,7.6,3.8,13V340h32.4v-6.9C842.8,321.5,841.9,309.1,840.1,295.9z"/>
</g>
<g class="st1">
	<path class="st2" d="M816.7,348.6c-0.2-0.8,0.5-2.6,1.1-5.5s2.6-12.5,3.3-16.4s3-12.4,4.2-13.8c1.1-1.4,2.4-1.5,3.9-1.7
		c1.5-0.2,4.7-0.9,6.8-1.4s4.2-1.2,4.2-1.2s0.1-0.6,0.3-1.2c0.2-0.6,0.8-1,0.8-1s0.1-1.5,0-2s-0.6-1.1-0.7-1.8
		c-0.2-0.7-0.2-3-0.2-3.5c0-0.5-0.5-0.8-0.5-1.5c0.1-0.7-0.1-2.5-0.1-3.2s0.2-1.7,0.2-2c0-0.3,0.2-0.8-0.1-1.1
		c-0.3-0.3-0.2-0.9-0.3-1.6c-0.1-0.7-0.5-1.3-0.3-2.2c0.2-0.9,0.3-1.2,0.3-2s1.3-1,2.8-3c1.5-2,4.2-1.9,5-1.7s0.8-0.1,1.8-0.6
		c1-0.5,2.8,0.6,4.3,1.5c1.6,0.9,0.6,0.1,1.7-0.1c1.1-0.2,2,1.1,2.6,2.1s1.2,0.9,2.1,1.7s0.2,2.6,0.2,2.8s0,1.6,0.2,2.4
		c0.2,0.8-0.8,1.6-0.8,2.5s-0.5,0.7-0.9,1.5c-0.4,0.8-0.5,1.5-0.2,1.9c0.2,0.4-0.4,0.7-0.5,1.4c0,0.6-0.2,0.9-0.3,1.3
		c-0.1,0.3-0.6,0.6-0.5,1.1c0,0.5-0.3,0.6-0.7,1c-0.4,0.4-0.7,0.5-0.9,1.2c-0.2,0.7-0.7,0.4-0.8,0.4s-0.4,0.5-0.6,1.1
		c-0.2,0.6-0.1,1.8-0.1,1.8c1.5,0,1.2,2,2.5,3.6s2.7,2.2,6.7,3.9s6.1,1.7,7.3,4.1s1,8.6,1.8,13.6c0.7,5,0.6,7.3,0.8,11.5
		s-0.6,8.7-0.9,10.5s-0.8,2.9-3.1,3.9s-8.5,2.7-8.5,2.7s0,8.6,0,10.7c0,2.1,0.2,16.5-0.6,16.8c-0.9,0.3-2.1,0.3-2.1,0.3
		s-0.4,2.2-0.5,5.5s-1.6,9-2.3,12.8c-0.7,3.9-4,11.9-4.8,14.5c-0.8,2.6-1.3,5.1-1.4,6.4s-1.8,9.9-1.8,10.3s0.4,0.8,0.6,1.5
		s0.6,1.1,3.2,1.6s4,2.3,4.9,3c0.9,0.7,2.4,1.1,2.2,2.2c-0.1,1.1-1.2,3.3-1.9,4.5c-0.6,1.2-1,0.2-1.7,0.4s-1.4,0.6-1.9,2.1
		c-0.5,1.5-0.2,4.7-0.5,6.7c-0.2,2-2,3.8-3.8,5.8c-1.8,2-3.8,2.9-4.9,2.1c-1-0.8-0.7-2-0.2-3.9c0.5-1.9,0.8-3.9,0.8-5.4
		s-0.1-2.4-0.4-2.9c-0.3-0.5-0.4-2.4-0.5-2.3s-1.4,3.8-2.1,6.1c-0.7,2.3-1.1,5.7-1.7,6.1s-2.5-0.5-2.9-0.3c-0.3,0.1-0.7,0.8-0.7,1.3
		c0.1,0.6,0.6,3.4,0.3,5.3s-0.3,1.6-0.4,3.1c-0.1,1.5-1.9,1.1-3.8,1s-5.7-0.4-7.1-0.5c-1.4-0.1-1.8-0.4-1.9-1.1
		c-0.1-0.7,0.4-1.7,0.6-2.4c0.2-0.7,0.8-2.3,1.2-3.7c0.3-1.4,0.9-2.2,1.6-3.2c0.7-0.9,0.6-1.3,0.6-1.3s1.5-5.4,1.8-6.1
		s3.8-13.9,3.8-13.9S817.6,423,816,420s-1.7-2.1-1.5-4.4s0.5-20.4,0.6-22.2c0.1-1.8,2.1-13.3,2.1-13.3s-2.4,0.5-2-1.1
		c0.4-1.7,1.6-11.2,1.9-12.7c0.3-1.5-1-4.7-1-4.9s-0.4-4.6-0.1-6.5c0.4-1.9,0.1-1.6-0.1-2.5C815.7,351.6,817,349.5,816.7,348.6z
		 M827.8,412.2c0,0.8,4.5,7.4,5.2,8.5c0.7,1.1,3.1,3.7,3.1,3.7s0.4-1.7,0.6-6.1c0.2-4.4,0.1-8.4,0.1-12s1.4-10.8,0.3-11.4
		c-0.1-0.1-6.6,11.6-7.6,13.2C828.4,409.8,827.8,411.4,827.8,412.2z"/>
	<path class="st3" d="M854.1,305.8c0,0-0.7,1.1-1.7,1.8s-4.4,2.5-5.6,2.9c-1.2,0.3-2.1,0.8-2.3,1.2c-0.2,0.4-0.2,0.4-0.2,0.4
		l-1.1-0.1c0,0,0-0.3-0.4-0.6s-1.1-0.8-1.5-1.6c-0.4-0.8-0.6-2.2,0-3.3l-1,0.1c0,0-0.8,1.3-0.8,1.4s0.2-0.2,0.4,0.8
		c0.2,1-1.8,6.2-2.8,8.6c-1,2.4-1.4,4.7-2,7.4c-0.6,2.7-1.7,6.1-2.1,10.5s0,9.4-0.1,11.2s0,4.1,0.1,3.6c0.1-0.5,1-3.4,1.3-4.9
		s2.3-7,2.7-8.4s0.9-3,2-4.9c1.1-1.9,7.2-10.9,10.8-17.2C853.4,308.2,855.1,307.6,854.1,305.8z"/>
	<path class="st2" d="M844.5,311.6c0,0,0.6,0,0.9,0.4s1.4,2,1.5,2.2c0.1,0.2-2.4,1.5-2.5,1.9c-0.1,0.4,0.2,1.9,0,3
		c-0.2,1.1-1.4,4.1-1.6,5.4s-0.5,3.9-0.5,3.9s-2.3,2.7-3.1,4.1c-0.8,1.4-2.2,4.8-2.4,6.1s-1.6,5.5-1.7,5.4c0-0.1,0-7.6,0.5-10.1
		s2.3-5.8,2.5-7.4c0.3-1.5,0.8-2.9,1.5-4.1c0.7-1.2,2.1-5.2,2.5-6.1c0.4-0.9,0.1-0.7,0.1-1.4c-0.1-0.6-1.4-2-1.4-2s1.3-1.2,1.8-1.4
		C843.2,311.4,844.5,311.6,844.5,311.6z"/>
	<path class="st3" d="M843.4,351.6c0,0-2.2,0.1-2.4,0.2c-0.2,0,0,1.2,0.3,2.5c0.3,1.7,0.1,4.3,0.2,5.5c0,0.4,0,1.7,0,1.7
		s2.3,0,3.8-1.2c0,0-0.9-1.8-1-4C844.1,354.1,843.4,351.6,843.4,351.6z"/>
</g>
<rect x="460.5" y="347" class="st4" width="340.2" height="25.8"/>
<text transform="matrix(1 0 0 1 533.2521 371.2857)" class="st5 st6 st7 st8">LEYHOZ</text>
<path class="st9" d="M210,259.7c0,0-0.6-0.4-2-0.2s-4.4,0.8-6.2,2.9c-1.8,2.1-5,5.6-5.4,7.2c-0.4,1.6,0,2.8,0.4,3.9
	c0.4,1-2.8,2.5-2.4,3.7c0.3,1.2-1.6,2.8-0.5,4.4c1.1,1.6,2.2,3,1.3,3.6c-0.9,0.6-1.6,0.9-1.6,0.9s-6.7,0.6-7.5,1
	c-0.7,0.4-1.1,0.9-0.9,1.7c0.2,0.8-0.5,1.6-0.7,1.8c-0.2,0.2-1-0.2-0.7,2s0.5,5,0.2,5.8c-0.3,0.8-1.3,0.7-0.3,1.4
	c1,0.7,0.7,2.6,1,3.9c0.3,1.4,0.4,3.2,0.3,3.5c-0.1,0.3-0.4,0.8,0.1,1c0.6,0.2,2,1.9,2.6,2.4s0.2,0.8-0.1,0.9
	c-0.3,0.1-0.4,0.6,0.6,1c0.9,0.4,0.7,0.7,0.6,1.2c-0.1,0.5-1.4,2.1-1.8,4.1s-3.2,7.2-4.4,9c-1.2,1.8-3.6,5.2-3.9,5.8
	c-0.3,0.6,5.2,1,6.4,1.4c1.2,0.3,1.9,1.1,2,1.2c0.1,0.1-0.1,2.5,1.2,4.8s6.3,4,9.6,4.2c0,0-0.7,5.9-0.4,9.9c0.3,3.9-1.1,7.3-1.6,8.1
	c-0.5,0.8-1.1,1.7-0.8,2.3s0.1,2.2,0.1,3.6c-0.1,1.4-3,5.9-3.6,6.8s-2,2.2-2.6,3.1s-1.3,2.6-0.6,3.4c0.7,0.7,2.4,1.3,4.4,1.6
	s6.5,0.7,7.4,0c1-0.7,0.1-3.4,0.7-4.7c0.6-1.3,0.2-2.6,0.8-3.8s1.3-1.3,0.9-2.7c-0.4-1.5,0-1.9,1.1-3.2s0.5-2,0.4-2.8
	c-0.1-0.7-0.1-0.7,0.4-0.6c0.5,0.1,1.1,0.2,1.1-0.5s0.6-2.4,0.8-2.9s0.9-3.5,1.1-3.9c0.1-0.4-0.3,5.3,0.3,10.7s1.1,8.5,0.8,10.7
	c-0.3,2.2-0.5,4.5-0.2,4.8s1.4,0.1,1.7,0.3c0.3,0.2,0.3,1,0,1.9c-0.3,0.8-0.8,1.5,0.2,2.5c1,1,1.6,1.7,1.1,4.1
	c-0.6,2.5,0.6,3.8,0.7,4.8s-1.1,2.3-0.8,3.8c0.2,1.5,1.2,1.6,2.3,1.6c1.1,0,1.9-0.3,2.1,0c0.3,0.3-0.1,1.4,0.4,1.4
	c0.4,0,1,0.1,1-0.2c0-0.3,0-1.3,0-1.3s1.9,0.1,4.3,0s4-0.4,4.1-1.2c0.1-0.8,0.3-2.1,0-2.5s-1.5-1.4-1.9-2c-0.5-0.6-2.1-3.7-2.3-4.4
	s0.1-1.6-0.6-2.2s-1-1-1.1-2s-0.2-3.2-0.2-3.5s0.6-0.3,0.7-0.9s-0.2-0.7-0.8-1.4c-0.5-0.7,0.5-1.2,0.5-2.3c0.1-1.1-0.8-1.9-1-2.8
	c-0.1-0.9,0.3-1.6,0.4-2.2s-0.6-0.2,0.5-4.5s1-9.1,1.5-12.5c0.5-3.4,0.9-4.8,1.9-5.7c1.1-0.9,0.7-0.9,0.6-1.8s0.9-1.9,1-3.4
	s-0.8-4.3-1-4.6c0,0,3.5-0.2,6.1-1.3c2.5-1.1,6.9-4.6,5.1-9.1c0,0,4.3-1.3,5.1-1.7c0.7-0.4-1.6-3-2.3-3.6s-1.9-3.2-4.5-5.5
	c0,0-1.1-2.5-1.5-3.6s-2.2-3.7-2.1-4.6s1.2-0.5,1.2-1.8s0-1.6,0.9-2.7s0.6-1.6,1-3c0.5-1.4,0.1-1.2,1.2-2.2s2.2-2.3,1.4-2.6
	c-0.8-0.3-1.2-0.3-0.4-1.5c0.8-1.2,0.9-1.4,0.6-2c-0.4-0.6-0.7-1.6-0.6-2.7s-0.2-3.6-0.3-4.6c-0.1-0.9-0.8-1.8-1.2-2.6
	c-0.4-0.8-0.6-1.4-1.5-1.6c-0.9-0.1-2.9-0.1-3.4-0.4c-0.6-0.2-1.2-0.5-1.2-1.5s0.9-0.8,1.8-2c0.9-1.2,0.2-1.7-1.1-3.7
	c-1.3-2-0.4-2.3-0.6-3.7c-0.1-1.4,0.2-2.6-1.4-4.2c-1.6-1.6-2.8-2.9-4-6C220.8,261.9,213.8,258.4,210,259.7z"/>
</svg>
